<?xml version="1.0" encoding="UTF-8"?>
<!DOCTYPE svg PUBLIC "-//W3C//DTD SVG 1.1//EN" "http://www.w3.org/Graphics/SVG/1.1/DTD/svg11.dtd">
<!-- Creator: CorelDRAW 2021 (64-Bit) -->
<svg xmlns="http://www.w3.org/2000/svg" xml:space="preserve" width="210mm" height="210mm" version="1.1" style="shape-rendering:geometricPrecision; text-rendering:geometricPrecision; image-rendering:optimizeQuality; fill-rule:evenodd; clip-rule:evenodd"
viewBox="0 0 21000 21000"
 xmlns:xlink="http://www.w3.org/1999/xlink"
 xmlns:xodm="http://www.corel.com/coreldraw/odm/2003">
 <defs>
  <style type="text/css">
   <![CDATA[
    .fil0 {fill:white}
   ]]>
  </style>
 </defs>
 <g id="Capa_x0020_1">
  <metadata id="CorelCorpID_0Corel-Layer"/>
  <path class="fil0" d="M4573.3 1407.95c690.93,-57.7 1562.42,-13.92 2274.68,-13.92l9107.95 -0.05c683.92,-0.35 1336.27,128.55 1844.06,427.8 523.66,308.6 884.97,627.52 1198.91,1089.79 824.9,1214.68 610.02,2431.71 610.02,3948.85l0.05 9107.94c0.43,727.47 -124.33,1291.24 -429.12,1841.77 -471.69,851.97 -1412.91,1683.79 -2757.58,1795.57 -691.04,57.45 -1568.12,11.99 -2278.86,11.99l-9107.94 0c-733.41,0.35 -1282.7,-115.71 -1839.33,-427.46 -863.32,-483.52 -1685.51,-1395.55 -1798.79,-2757.67 -57.5,-691.71 -12.52,-1565.65 -12.52,-2276.71l-0.03 -9107.95c-0.4,-743.94 117.85,-1273.84 426.55,-1842 462.92,-852.11 1421.5,-1686.02 2761.95,-1797.95zm15832.23 14990.9c27.32,-383.76 8.45,-831.19 8.45,-1223.46l0 -8677.46c0,-1563.41 147.07,-2856.01 -817.4,-4139.37 -621.79,-827.36 -1649.81,-1665.82 -3210.89,-1760.01 -780.58,-47.13 -1674.7,-9.45 -2468.85,-9.45 -2477.12,0 -4954.23,0 -7431.35,0 -744.93,0 -1707.32,-55.47 -2414.34,73.88 -1795.6,328.53 -3349.24,1868.93 -3482.82,3947.16 -49.91,776.38 -8.48,1686.18 -8.48,2476.85l0 7431.35c0,1825.81 -123.63,2820.55 819.65,4134.15 590.77,822.73 1673.04,1666.92 3200.24,1763.39 771.02,48.7 1686.31,6.82 2474.81,6.82 2477.12,0 4954.23,0 7431.35,0 1854.02,0 2797.46,125.1 4136.83,-816.01 1011.36,-710.63 1670.07,-1905.18 1762.8,-3207.84z"/>
  <path class="fil0" d="M15200.15 10825.32c-77.97,957.35 -415.73,1874.48 -979.05,2569.89 -117.16,144.61 -418.82,491.95 -562.44,614.99 -801.4,686.38 -1973.47,1311.38 -3483.04,1199.69 -932.84,-69.02 -1891.42,-427.19 -2565.12,-978.2 -357.17,-292.11 -189.38,-145.28 -464.93,-418.98 -924.41,-918.23 -1453.34,-2241.95 -1351.31,-3639.53 181.35,-2483.72 2321.78,-4567.39 5039.06,-4368.54 945.9,69.23 1854.31,423.87 2551.32,976.17 244.21,193.49 398.51,355.1 613.15,564.84 333.32,325.72 725.88,1018.45 896.77,1459.79 228.63,590.59 362.97,1315.48 305.59,2019.88zm-10197.01 226.57c75.86,747.13 325.72,1545.99 648.82,2102.75 391.81,675.17 829.63,1216.33 1434.71,1691.32 1716.02,1347.11 4142,1581.57 6068.46,496.82 526.47,-296.45 1156.42,-771.4 1514.99,-1226.64l308.86 -393.69c1703.53,-2358.97 1243.66,-5572.94 -884.75,-7401.75 -942.8,-810.07 -2402.38,-1483.88 -4137.15,-1307.5 -2993.95,304.39 -5266.6,2960.44 -4953.94,6038.69z"/>
  <path class="fil0" d="M16467.52 4149.88c180.84,-38.16 353.6,99.41 386.41,250.63 42.33,195.15 -92.99,359.32 -247.98,391.76 -453.9,94.99 -541.35,-557.38 -138.43,-642.39zm-1063.24 467.54c75.22,565.27 579.69,1051.74 1242.93,982.48 582.42,-60.8 1085.24,-583.92 1009.56,-1255 -66.04,-585.69 -594.76,-1076.65 -1270.36,-995.83 -568.54,67.99 -1070.82,601.9 -982.13,1268.35z"/>
 </g>
</svg>
