<?xml version="1.0" encoding="UTF-8"?>
<!DOCTYPE svg PUBLIC "-//W3C//DTD SVG 1.1//EN" "http://www.w3.org/Graphics/SVG/1.1/DTD/svg11.dtd">
<!-- Creator: CorelDRAW 2021 (64-Bit) -->
<svg xmlns="http://www.w3.org/2000/svg" xml:space="preserve" width="210mm" height="210mm" version="1.1" style="shape-rendering:geometricPrecision; text-rendering:geometricPrecision; image-rendering:optimizeQuality; fill-rule:evenodd; clip-rule:evenodd"
viewBox="0 0 21000 21000"
 xmlns:xlink="http://www.w3.org/1999/xlink"
 xmlns:xodm="http://www.corel.com/coreldraw/odm/2003">
 <defs>
  <style type="text/css">
   <![CDATA[
    .fil0 {fill:white}
   ]]>
  </style>
 </defs>
 <g id="Capa_x0020_1">
  <metadata id="CorelCorpID_0Corel-Layer"/>
  <path class="fil0" d="M8962.55 6750.97c1.05,-900.82 7.5,-1824.05 84.43,-2716.59 186.09,-2159.08 743.44,-2576.4 2836.98,-2729.84 379.16,-27.77 2472.49,-98.66 2719.64,-44.15l-1.28 2394.96c-149.7,35.54 -637.26,14.91 -829.26,23.44 -738.51,32.87 -1479.06,87.88 -1929.99,661.18 -510.28,648.74 -461.9,2001.81 -464.14,2954.75 -0.99,533.05 -101.42,1038.14 472.89,1044.14l2750.01 -0.54c6.72,328.45 16.65,2227.18 -6.9,2416.91l-2765.83 -0.62c-301.34,4.37 -451,157.7 -451,459.71l0 8564.27c-300.19,0 -2288.33,20.39 -2412.28,-13.38l-4.52 -8324.34c-0.46,-785.56 -203.03,-682.83 -1073.65,-682.59 -498.7,0.13 -997.5,-3.05 -1498.33,-2.84l-4.36 -2417.09c516,0 1032.01,0 1548.02,0 579.26,0 1026.9,128.77 1028.37,-522.51l1.2 -1064.87zm3224.22 777.87c1.32,-691.01 -77.92,-2350.59 343.01,-2751.53 542.23,-516.49 2345.24,-147.42 2701.84,-378.87 185.9,-120.63 175.89,-313.73 175.76,-592.83l-0.03 -2310.97c0,-1204.26 178.65,-1069.85 -2014.17,-1048.28 -956.26,9.42 -1947.76,26.57 -2859.35,228.98 -914.49,203.05 -1455.11,623.96 -1804.03,1277.03 -668.86,1251.92 -568.16,3984.41 -572.52,5573.42 -370.3,18.47 -778.76,3.05 -1153.24,3.05 -1357.57,0 -1425.09,-158.17 -1425.09,876.06l0 2288.3c0,379.02 -62.4,763.48 301.4,851.97 170.27,41.43 1909.97,3.88 2272.89,15.28 33.04,463.72 5.45,2161.09 5.53,2757.8l3.05 5528.2c0.33,607.77 22.35,733.08 654.76,732.58 453.15,-0.38 906.22,1.47 1359.39,1.44 460,0 922.22,-2.03 1382.03,2.44 613.95,5.96 628.8,-185.74 628.77,-759.12 -0.05,-921.36 0,-1842.73 0,-2764.09 0,-463.82 -25.58,-5175.13 5.62,-5501.01 875.98,0 1752.23,-2.22 2628.18,0.08 582.05,1.55 586.81,-187.4 586.78,-729.63l0 -2605.48c0.14,-540.31 -47.71,-695.91 -609.42,-694.87 -870.33,1.6 -1740.82,0.05 -2611.16,0.05z"/>
 </g>
</svg>
