<?xml version="1.0" encoding="UTF-8"?>
<!DOCTYPE svg PUBLIC "-//W3C//DTD SVG 1.1//EN" "http://www.w3.org/Graphics/SVG/1.1/DTD/svg11.dtd">
<!-- Creator: CorelDRAW 2021 (64-Bit) -->
<svg xmlns="http://www.w3.org/2000/svg" xml:space="preserve" width="210mm" height="210mm" version="1.1" style="shape-rendering:geometricPrecision; text-rendering:geometricPrecision; image-rendering:optimizeQuality; fill-rule:evenodd; clip-rule:evenodd"
viewBox="0 0 21000 21000"
 xmlns:xlink="http://www.w3.org/1999/xlink"
 xmlns:xodm="http://www.corel.com/coreldraw/odm/2003">
 <defs>
  <style type="text/css">
   <![CDATA[
    .fil0 {fill:white}
   ]]>
  </style>
 </defs>
 <g id="Capa_x0020_1">
  <metadata id="CorelCorpID_0Corel-Layer"/>
  <path class="fil0" d="M1253.01 4340.31c131.42,82.8 7381.44,7367.93 8016.96,8003.42l849.08 849.91c262.59,273.89 456.04,306.16 736.11,11.72 96.81,-101.79 183.27,-184.24 282.58,-283.51 874.05,-873.84 8456.46,-8492.91 8594.37,-8580.97 3.11,-1.29 8.11,-9.21 8.65,-5.09l18.81 12943.81 -18522.24 4.07c-0.99,-1086.79 -25.69,-12933.64 -0.51,-12946.09l16.19 2.73zm9239.53 8082.09c-120.29,-73.83 -433.7,-417.58 -556.71,-540.62 -877.8,-877.77 -8053.75,-8011.93 -8122.02,-8142.22l17358.14 0.21c-60.02,118.84 -908.65,927.95 -1075.47,1096.94l-7603.94 7585.69zm-10067.07 5314.47c48.91,389.68 457.4,345.82 755.24,345.82l18759.6 0.03c401.68,0.61 622.32,-60.61 623.71,-480.66 1.2,-362.73 -0.48,-725.86 -0.48,-1088.64 0,-633.35 22.61,-13044 -0.46,-13223.34 -56.03,-435.68 -524.51,-353.85 -758.71,-353.87l-18759.6 0.08c-288.58,-0.65 -636.8,-10.52 -625.73,480.6 8.14,360.86 2.49,727.03 2.49,1088.56 0,1472.66 0,2945.35 0,4418.02 0,197.41 -23.28,8596.54 3.94,8813.4z"/>
  <path class="fil0" d="M19732.11 4340.88l15.63 12920.56 -18501.93 0 7.2 -12921.13 -16.19 -2.73c-25.18,12.45 -0.48,11859.3 0.51,12946.09l18522.24 -4.07 -18.81 -12943.81c-0.54,-4.12 -5.54,3.8 -8.65,5.09z"/>
 </g>
</svg>
