<?xml version="1.0" encoding="UTF-8"?>
<!DOCTYPE svg PUBLIC "-//W3C//DTD SVG 1.1//EN" "http://www.w3.org/Graphics/SVG/1.1/DTD/svg11.dtd">
<!-- Creator: CorelDRAW 2021 (64-Bit) -->
<svg xmlns="http://www.w3.org/2000/svg" xml:space="preserve" width="210mm" height="210mm" version="1.1" style="shape-rendering:geometricPrecision; text-rendering:geometricPrecision; image-rendering:optimizeQuality; fill-rule:evenodd; clip-rule:evenodd"
viewBox="0 0 21000 21000"
 xmlns:xlink="http://www.w3.org/1999/xlink"
 xmlns:xodm="http://www.corel.com/coreldraw/odm/2003">
 <defs>
  <style type="text/css">
   <![CDATA[
    .fil0 {fill:black}
    .fil1 {fill:black}
    .fil2 {fill:red}
   ]]>
  </style>
 </defs>
 <g id="Capa_x0020_1">
  <metadata id="CorelCorpID_0Corel-Layer"/>
  <g id="_2282647261488">
   <path class="fil0" d="M2122.46 4936.2l2939.7 2939.7 0 -5269.44 4430.18 0c1588.46,0 2712.77,103.14 3367.75,309.43 655,206.32 1160.41,593.12 1511.11,1155.25 355.87,557 531.22,1206.85 531.22,1944.35 0,778.77 -190.82,1423.43 -567.31,1939.18 -376.49,515.71 -938.65,887.05 -1686.47,1108.81 -562.16,170.2 -1495.64,257.89 -2795.28,257.89l-3345.74 0 2599.31 2599.3 1081.64 0c1407.98,0 2491.01,123.79 3238.83,371.33 752.98,247.55 1340.92,675.6 1763.82,1289.35 428.06,613.73 639.53,1330.61 639.53,2160.94 0,706.54 -144.41,1330.6 -438.39,1872.1 -70.43,129.75 -145.3,252.09 -224.68,367.03l2089.76 2089.79c355.75,-398.37 670.98,-876.5 945.7,-1435.64 438.36,-892.23 660.13,-1856.66 660.13,-2898.44 0,-1289.35 -361.02,-2408.51 -1083.03,-3352.31 -716.89,-948.93 -1748.35,-1619.4 -3089.27,-2011.36 1036.62,-515.75 1810.23,-1191.35 2320.82,-2026.84 510.56,-835.51 768.45,-1727.72 768.45,-2671.52 0,-1021.18 -288.83,-1995.92 -871.61,-2924.22 -577.63,-933.49 -1377.02,-1624.59 -2398.17,-2073.27 -1026.33,-448.69 -2382.72,-670.48 -4074.32,-670.48l-8313.68 0 0 4929.07z"/>
   <polygon class="fil1" points="16114.8,21007.13 2122.46,7014.79 2122.46,11085.16 11957.46,21007.13 "/>
   <rect class="fil2" x="2122.44" y="19565.14" width="1441.97" height="1441.97"/>
   <rect class="fil2" x="3807.06" y="19565.14" width="1441.97" height="1441.97"/>
   <rect class="fil2" x="2122.44" y="17880.52" width="1441.97" height="1441.97"/>
   <rect class="fil2" x="3807.06" y="17880.52" width="1441.97" height="1441.97"/>
  </g>
 </g>
</svg>
